<?xml version="1.0" encoding="iso-8859-1"?>
<!-- Generator: Adobe Illustrator 19.0.0, SVG Export Plug-In . SVG Version: 6.00 Build 0)  -->
<svg xmlns="http://www.w3.org/2000/svg" xmlns:xlink="http://www.w3.org/1999/xlink" version="1.1" id="Capa_1" x="0px" y="0px" viewBox="0 0 512.005 512.005" style="enable-background:new 0 0 512.005 512.005;" xml:space="preserve" width="512px" height="512px">
<g>
	<g>
		<path d="M474.837,123.701c-35.341-58.509-91.35-99.761-157.715-116.139C250.766-8.824,181.987,1.617,123.478,36.958l8.82,14.604    C186.9,18.584,251.081,8.842,313.028,24.128C374.974,39.423,427.247,77.92,460.225,132.53    c53.425,88.467,44.11,200.605-23.194,279.032l12.949,11.115C522.094,338.637,532.083,218.498,474.837,123.701z" fill="#dc143c"/>
	</g>
</g>
<g>
	<g>
		<path d="M404.088,443.277c-50.004,39.623-112.437,57.391-175.825,50.047c-63.371-7.345-120.088-38.932-159.711-88.936    c-73.53-92.8-67.372-227.415,14.314-313.127L70.522,79.489c-87.537,91.836-94.131,236.065-15.346,335.493    c42.455,53.578,103.224,87.418,171.125,95.291c10.023,1.16,20.02,1.732,29.967,1.732c57.391,0,112.752-19.176,158.414-55.353    L404.088,443.277z" fill="#dc143c"/>
	</g>
</g>
<g>
	<g>
		<rect x="247.311" y="392.48" width="17.06" height="101.339" fill="#dc143c"/>
	</g>
</g>
<g>
	<g>
		<rect x="247.311" y="136.573" width="17.06" height="110.893" fill="#dc143c"/>
	</g>
</g>
<g>
	<g>
		<rect x="247.311" y="8.62" width="17.06" height="68.242" fill="#dc143c"/>
	</g>
</g>
<g>
	<g>
		<rect x="383.794" y="247.466" width="119.423" height="17.06" fill="#dc143c"/>
	</g>
</g>
<g>
	<g>
		<rect x="204.66" y="247.466" width="34.121" height="17.06" fill="#dc143c"/>
	</g>
</g>
<g>
	<g>
		<rect x="8.465" y="247.466" width="136.483" height="17.06" fill="#dc143c"/>
	</g>
</g>
<g>
	<g>
		<rect x="307.022" y="119.513" width="162.074" height="17.06" fill="#dc143c"/>
	</g>
</g>
<g>
	<g>
		<rect x="39.933" y="119.513" width="215.9" height="17.06" fill="#dc143c"/>
	</g>
</g>
<g>
	<g>
		<rect x="417.915" y="375.419" width="53.826" height="17.06" fill="#dc143c"/>
	</g>
</g>
<g>
	<g>
		<rect x="247.311" y="375.419" width="8.53" height="17.06" fill="#dc143c"/>
	</g>
</g>
<g>
	<g>
		<rect x="51.116" y="375.419" width="196.195" height="17.06" fill="#dc143c"/>
	</g>
</g>
<g>
	<g>
		<path d="M187.062,22.55l-14.629-8.778c-89.687,149.398-89.687,335.015,0,484.422l14.629-8.786    C100.626,345.427,100.626,166.532,187.062,22.55z" fill="#dc143c"/>
	</g>
</g>
<g>
	<g>
		<path d="M364.303,406.691c-10.151,28.738-23.27,56.572-39,82.717l14.612,8.795c16.335-27.135,29.95-56.009,40.484-85.831    L364.303,406.691z" fill="#dc143c"/>
	</g>
</g>
<g>
	<g>
		<path d="M339.932,13.773l-14.629,8.786c42.352,70.494,64.727,151.215,64.719,233.429h17.06    C407.09,170.677,383.871,86.919,339.932,13.773z" fill="#dc143c"/>
	</g>
</g>
<g>
	<g>
		<path d="M315.553,213.337c-56.444,0-102.362,45.918-102.362,102.362c0,56.444,45.918,102.362,102.362,102.362    s102.362-45.918,102.362-102.362C417.915,259.255,371.997,213.337,315.553,213.337z M315.553,401.001    c-47.036,0-85.302-38.266-85.302-85.302s38.258-85.302,85.302-85.302c47.036,0,85.302,38.267,85.302,85.302    C400.855,362.735,362.588,401.001,315.553,401.001z" fill="#dc143c"/>
	</g>
</g>
<g>
	<g>
		<path d="M264.371,315.699h-17.06c0,37.627,30.615,68.242,68.242,68.242h0.009v-17.06    C287.335,366.88,264.371,343.926,264.371,315.699z" fill="#dc143c"/>
	</g>
</g>
<g>
	<g>
		<path d="M325.294,248.149l-2.431,16.881c25.011,3.6,43.871,25.386,43.871,50.669h17.06    C383.794,281.988,358.647,252.951,325.294,248.149z" fill="#dc143c"/>
	</g>
</g>
<g>
	<g>
		<path d="M509.248,463.212L406.886,360.85l-12.062,12.062l96.332,96.332l-22.059,22.059l-96.332-96.332l-12.062,12.062    l102.362,102.362c1.663,1.663,3.847,2.499,6.031,2.499s4.367-0.836,6.031-2.499l34.121-34.121    C512.583,471.938,512.583,466.547,509.248,463.212z" fill="#dc143c"/>
	</g>
</g>
<g>
	<g>
		<path d="M115.477,22.857c-6.483-3.745-13.845-5.715-21.223-5.715c-0.188-0.009-0.392,0.008-0.554,0    c-11.362,0-22.051,4.419-30.103,12.437c-8.07,8.044-12.531,18.749-12.548,30.137c-0.017,7.788,2.098,15.431,6.125,22.102    l29.839,50.55c1.535,2.602,4.325,4.197,7.344,4.197c0.017,0,0.043,0,0.051,0.009c3.037-0.017,5.835-1.646,7.344-4.282    l29.335-51.164C142.841,60.757,135.838,34.62,115.477,22.857z M116.304,72.605l-22.051,38.463l-22.4-37.959    c-0.017-0.026-0.034-0.051-0.051-0.077c-2.423-4.009-3.702-8.598-3.685-13.282c0.009-6.841,2.687-13.264,7.524-18.084    c4.837-4.811,11.243-7.464,18.178-7.464c0.009,0,0.026,0,0.043,0c4.385,0.06,9.119,1.126,13.094,3.421    C119.17,44.686,123.376,60.365,116.304,72.605z" fill="#dc143c"/>
	</g>
</g>
<g>
	<g>
		<rect x="85.066" y="51.271" width="17.06" height="17.06" fill="#dc143c"/>
	</g>
</g>
<g>
	<g>
		<path d="M220.057,227.898c-2.951-11.013-10.006-20.208-19.875-25.906c-6.398-3.694-13.682-5.664-20.967-5.707    c-11.337-0.145-22.179,4.06-30.368,11.976c-8.189,7.916-12.812,18.553-13,29.941c-0.136,8.027,1.979,15.892,6.125,22.759    l29.745,50.533c1.535,2.602,4.333,4.205,7.353,4.205c0.017,0,0.026,0,0.043,0.009c3.037-0.017,5.843-1.646,7.353-4.291    l29.327-51.156C221.49,250.392,223,238.902,220.057,227.898z M201,251.748l-22.034,38.437l-22.324-37.925    c-0.017-0.034-0.034-0.068-0.051-0.094c-2.499-4.12-3.779-8.854-3.694-13.682c0.111-6.833,2.883-13.213,7.797-17.965    c4.811-4.649,11.106-7.191,17.862-7.191c0.154,0,0.307,0,0.452,0.009c4.427,0.026,8.803,1.211,12.642,3.429    C203.867,223.82,208.072,239.508,201,251.748z" fill="#dc143c"/>
	</g>
</g>
<g>
	<g>
		<rect x="169.942" y="230.406" width="17.06" height="17.06" fill="#dc143c"/>
	</g>
</g>
<g>
	<g>
		<path d="M322.419,91.406c-2.951-11.013-10.006-20.208-19.867-25.906c-6.398-3.694-13.691-5.664-20.976-5.707    c-11.03-0.145-22.179,4.06-30.368,11.976c-8.189,7.916-12.812,18.553-13,29.941c-0.136,8.027,1.979,15.892,6.125,22.759    l29.745,50.542c1.535,2.602,4.333,4.205,7.353,4.205c0.017,0,0.034,0,0.06,0c3.037-0.017,5.835-1.646,7.344-4.282l29.327-51.164    C323.861,113.9,325.371,102.41,322.419,91.406z M303.371,115.265l-22.042,38.446l-22.324-37.934    c-0.017-0.034-0.034-0.068-0.051-0.094c-2.499-4.12-3.779-8.854-3.694-13.682c0.111-6.833,2.883-13.213,7.797-17.965    c4.811-4.649,11.106-7.191,17.862-7.191c0.162,0,0.316,0,0.461,0.009c4.427,0.026,8.795,1.211,12.633,3.429    C306.238,87.337,310.434,103.024,303.371,115.265z" fill="#dc143c"/>
	</g>
</g>
<g>
	<g>
		<rect x="272.304" y="93.922" width="17.06" height="17.06" fill="#dc143c"/>
	</g>
</g>
<g>
</g>
<g>
</g>
<g>
</g>
<g>
</g>
<g>
</g>
<g>
</g>
<g>
</g>
<g>
</g>
<g>
</g>
<g>
</g>
<g>
</g>
<g>
</g>
<g>
</g>
<g>
</g>
<g>
</g>
</svg>
